<!DOCTYPE svg PUBLIC "-//W3C//DTD SVG 1.1//EN" "http://www.w3.org/Graphics/SVG/1.1/DTD/svg11.dtd">
<!-- Uploaded to: SVG Repo, www.svgrepo.com, Transformed by: SVG Repo Mixer Tools -->
<svg width="800px" height="800px" viewBox="-6.4 -6.4 76.80 76.80" xmlns="http://www.w3.org/2000/svg" stroke-width="3" stroke="#FFD700" fill="none" transform="matrix(1, 0, 0, 1, 0, 0)rotate(45)">
<g id="SVGRepo_bgCarrier" stroke-width="0" transform="translate(0,0), scale(1)">
<rect x="-6.4" y="-6.4" width="76.80" height="76.80" rx="38.4" fill="#7ed0ec" strokewidth="0"/>
</g>
<g id="SVGRepo_tracerCarrier" stroke-linecap="round" stroke-linejoin="round"/>
<g id="SVGRepo_iconCarrier">
<path d="M13.4,51V46.21s4.83-.24,4.83-4.83V26.1s-.05-12.67,13.63-12.67c12.06,0,15,7,15,12.21V42.23s-.36,4,4.8,4V51Z"/>
<path d="M36.24,13.79V12.47a3.74,3.74,0,0,0-7.48,0v1.2"/>
<path d="M36.33,51a4.57,4.57,0,0,1-9.13,0"/>
<path d="M50.5,33.49A4.67,4.67,0,0,1,52,41.08"/>
<path d="M53.3,30a8,8,0,0,1,2.59,13"/>
<path d="M14,33.74a4.66,4.66,0,0,0-1.51,7.59"/>
<path d="M11.17,30.26a8,8,0,0,0-2.59,13"/>
</g>
</svg>